<svg width="24" height="24" viewBox="0 0 24 24" fill="none" xmlns="http://www.w3.org/2000/svg">
<g clip-path="url(#clip0_379_2434)">
<path d="M13.1774 14.2286V13.6951C13.1774 13.0454 12.6501 12.5186 12.001 12.5186C11.3508 12.5186 10.824 13.0454 10.824 13.6951V14.2286C10.824 14.8778 11.3508 15.4051 12.001 15.4051C12.6501 15.4051 13.1774 14.8782 13.1774 14.2286Z" fill="#B3E8CA"/>
<path d="M13.9842 14.879C13.7239 15.7326 12.9381 16.3598 12.0009 16.3598C11.0633 16.3598 10.2775 15.7331 10.0167 14.879H1.91113C1.39955 14.879 0.916145 14.7601 0.482422 14.5537V19.9356C0.482422 20.9865 1.34223 21.8463 2.3931 21.8463H21.6078C22.6587 21.8463 23.5185 20.9865 23.5185 19.9356V14.5542C23.0848 14.7605 22.6014 14.8795 22.0903 14.8795L13.9842 14.879Z" fill="#00B14F"/>
<path d="M22.01 5.2152H17.4234C17.1469 3.48317 15.6456 2.1543 13.8371 2.1543H10.1619C8.35299 2.1543 6.85311 3.48317 6.57558 5.2152H1.98996C0.895141 5.2152 -0.000488281 6.075 -0.000488281 7.12588V11.5362C-0.000488281 12.5909 0.855017 13.4469 1.91019 13.4469H9.92547C9.9527 12.898 10.1887 12.4027 10.5617 12.0459C10.5732 12.0354 10.5866 12.0263 10.5985 12.0158C10.6811 11.9398 10.7671 11.8682 10.8612 11.8061C10.8947 11.7836 10.9329 11.7683 10.9677 11.7483C11.0451 11.7039 11.1216 11.6575 11.2051 11.6231C11.2706 11.5959 11.3413 11.5801 11.4101 11.5596C11.4693 11.5419 11.5257 11.5185 11.5873 11.5061C11.721 11.4789 11.8591 11.4645 12 11.4645C12.1414 11.4645 12.2789 11.4794 12.4122 11.5061C12.4734 11.5185 12.5302 11.5419 12.5899 11.5596C12.6587 11.5801 12.7284 11.5959 12.7948 11.6236C12.8779 11.658 12.9539 11.7039 13.0313 11.7483C13.0661 11.7688 13.1044 11.7841 13.1388 11.8066C13.2329 11.8682 13.3184 11.9398 13.401 12.0158C13.4129 12.0268 13.4277 12.0354 13.4383 12.0468C13.8118 12.4041 14.0473 12.898 14.0745 13.4478H22.0898C23.145 13.4478 24.0005 12.5923 24.0005 11.5371V7.12683C24.0005 6.075 23.1048 5.2152 22.01 5.2152V5.2152ZM8.41604 5.2152C8.65965 4.47911 9.34606 3.94269 10.1629 3.94269H13.8381C14.6544 3.94269 15.3408 4.47911 15.5844 5.2152H8.41604Z" fill="#00B14F"/>
</g>
<defs>
<clipPath id="clip0_379_2434">
<rect width="24" height="24" fill="white"/>
</clipPath>
</defs>
</svg>
