<svg width="24" height="24" viewBox="0 0 24 24" fill="none" xmlns="http://www.w3.org/2000/svg">
<path d="M17.2266 1.54688H6.77344C3.88689 1.54688 1.54688 3.88689 1.54688 6.77344V17.2266C1.54688 20.1131 3.88689 22.4531 6.77344 22.4531H17.2266C20.1131 22.4531 22.4531 20.1131 22.4531 17.2266V6.77344C22.4531 3.88689 20.1131 1.54688 17.2266 1.54688Z" fill="#00B14F"/>
<g opacity="0.9">
<path d="M9.0001 14.7502C8.90159 14.7503 8.80404 14.7309 8.71301 14.6933C8.62199 14.6556 8.53927 14.6004 8.4696 14.5307L6.4696 12.5307C6.3999 12.4611 6.34461 12.3784 6.30689 12.2874C6.26917 12.1963 6.24976 12.0988 6.24976 12.0002C6.24976 11.9017 6.26917 11.8041 6.30689 11.7131C6.34461 11.6221 6.3999 11.5394 6.4696 11.4697L8.4696 9.46974C8.61029 9.32904 8.80112 9.25 9.0001 9.25C9.19907 9.25 9.3899 9.32904 9.5306 9.46974C9.67129 9.61044 9.75034 9.80126 9.75034 10.0002C9.75034 10.1992 9.67129 10.39 9.5306 10.5307L8.0606 12.0002L9.5306 13.4697C9.63555 13.5746 9.70704 13.7083 9.73601 13.8538C9.76497 13.9994 9.75012 14.1502 9.69333 14.2873C9.63653 14.4244 9.54035 14.5415 9.41695 14.624C9.29355 14.7064 9.14848 14.7503 9.0001 14.7502Z" fill="white"/>
</g>
<g opacity="0.9">
<path d="M15.0001 14.7502C14.8517 14.7503 14.7066 14.7064 14.5832 14.624C14.4598 14.5415 14.3637 14.4244 14.3069 14.2873C14.2501 14.1502 14.2352 13.9994 14.2642 13.8538C14.2932 13.7083 14.3646 13.5746 14.4696 13.4697L15.9396 12.0002L14.4696 10.5307C14.3999 10.4611 14.3447 10.3784 14.307 10.2873C14.2693 10.1963 14.2499 10.0988 14.2499 10.0002C14.2499 9.90172 14.2693 9.80416 14.307 9.71314C14.3447 9.62211 14.3999 9.53941 14.4696 9.46974C14.6103 9.32904 14.8011 9.25 15.0001 9.25C15.0986 9.25 15.1962 9.26941 15.2872 9.30711C15.3782 9.34481 15.4609 9.40007 15.5306 9.46974L17.5306 11.4697C17.6003 11.5394 17.6556 11.6221 17.6933 11.7131C17.731 11.8041 17.7504 11.9017 17.7504 12.0002C17.7504 12.0988 17.731 12.1963 17.6933 12.2874C17.6556 12.3784 17.6003 12.4611 17.5306 12.5307L15.5306 14.5307C15.4609 14.6004 15.3782 14.6556 15.2872 14.6933C15.1962 14.7309 15.0986 14.7503 15.0001 14.7502Z" fill="white"/>
</g>
<g opacity="0.5">
<path d="M11.0001 16.2507C10.9302 16.2506 10.8607 16.2408 10.7936 16.2217C10.6024 16.167 10.4407 16.0387 10.3441 15.8648C10.2476 15.691 10.224 15.4859 10.2786 15.2947L12.2786 8.29469C12.3041 8.19825 12.3485 8.10787 12.4094 8.02883C12.4702 7.94979 12.5462 7.88368 12.6329 7.83437C12.7196 7.78506 12.8153 7.75355 12.9144 7.74167C13.0134 7.72979 13.1138 7.73778 13.2097 7.76519C13.3056 7.79259 13.3951 7.83885 13.4729 7.90126C13.5507 7.96366 13.6153 8.04097 13.6629 8.12864C13.7105 8.21631 13.7401 8.3126 13.75 8.41185C13.7599 8.51111 13.7499 8.61134 13.7206 8.70669L11.7206 15.7067C11.6758 15.8633 11.5813 16.0011 11.4513 16.0992C11.3214 16.1974 11.163 16.2505 11.0001 16.2507Z" fill="white"/>
</g>
</svg>
