<svg width="26" height="26" viewBox="0 0 26 26" fill="none" xmlns="http://www.w3.org/2000/svg">
<g clip-path="url(#clip0_265_3528)">
<path d="M23.0208 3.25H2.97923C1.33578 3.25 0 4.58578 0 6.22923V19.7708C0 21.4142 1.33578 22.75 2.97923 22.75H23.0208C24.6642 22.75 26 21.4142 26 19.7708V6.22923C26 4.58578 24.6642 3.25 23.0208 3.25V3.25ZM8.125 7.58327C9.61789 7.58327 10.8333 8.79884 10.8333 10.2917C10.8333 11.7844 9.61789 13 8.125 13C6.63211 13 5.41673 11.7844 5.41673 10.2917C5.41673 8.79884 6.63211 7.58327 8.125 7.58327ZM13 17.6042C13 18.0527 12.636 18.4167 12.1875 18.4167H4.0625C3.614 18.4167 3.25 18.0527 3.25 17.6042V17.0625C3.25 15.4191 4.58578 14.0833 6.22923 14.0833H10.0208C11.6642 14.0833 13 15.4191 13 17.0625V17.6042ZM21.9375 18.4167H15.9792C15.5307 18.4167 15.1667 18.0527 15.1667 17.6042C15.1667 17.1557 15.5307 16.7917 15.9792 16.7917H21.9375C22.386 16.7917 22.75 17.1557 22.75 17.6042C22.75 18.0527 22.386 18.4167 21.9375 18.4167ZM21.9375 14.0833H15.9792C15.5307 14.0833 15.1667 13.7193 15.1667 13.2708C15.1667 12.8223 15.5307 12.4583 15.9792 12.4583H21.9375C22.386 12.4583 22.75 12.8223 22.75 13.2708C22.75 13.7193 22.386 14.0833 21.9375 14.0833ZM21.9375 9.75H15.9792C15.5307 9.75 15.1667 9.386 15.1667 8.9375C15.1667 8.489 15.5307 8.125 15.9792 8.125H21.9375C22.386 8.125 22.75 8.489 22.75 8.9375C22.75 9.386 22.386 9.75 21.9375 9.75Z" fill="#00B14F"/>
</g>
<defs>
<clipPath id="clip0_265_3528">
<rect width="26" height="26" fill="white"/>
</clipPath>
</defs>
</svg>
