<svg width="24" height="24" viewBox="0 0 24 24" fill="none" xmlns="http://www.w3.org/2000/svg">
<path d="M8.53512 6.00031H15.4651L17.1676 2.58781C17.2463 2.43003 17.2669 2.24957 17.2257 2.07812C17.1846 1.90668 17.0843 1.75521 16.9426 1.65031C16.8003 1.54422 16.625 1.49202 16.4479 1.50301C16.2707 1.51399 16.1032 1.58745 15.9751 1.71031C15.4844 2.09305 14.8715 2.2849 14.2501 2.25031C13.6323 2.28452 13.0227 2.09553 12.5326 1.71781C12.3921 1.57813 12.202 1.49972 12.0039 1.49972C11.8057 1.49972 11.6156 1.57813 11.4751 1.71781C10.9833 2.09787 10.3706 2.28703 9.75012 2.25031C9.13228 2.28452 8.52274 2.09553 8.03262 1.71781C7.90657 1.59079 7.73927 1.51303 7.56091 1.49855C7.38255 1.48408 7.2049 1.53385 7.06002 1.63889C6.91514 1.74392 6.8126 1.89729 6.7709 2.07131C6.72919 2.24533 6.75108 2.42852 6.83262 2.58781L8.53512 6.00031Z" fill="#7FD9A6"/>
<path d="M15.93 7.5H8.07C6.465 9.4425 3.75 13.2975 3.75 17.25C3.75 20.6775 6.36 22.5 8.25 22.5H15.75C17.64 22.5 20.25 20.6775 20.25 17.25C20.25 13.2975 17.535 9.4425 15.93 7.5ZM12.75 18V18.75C12.75 18.9489 12.671 19.1397 12.5303 19.2803C12.3897 19.421 12.1989 19.5 12 19.5C11.8011 19.5 11.6103 19.421 11.4697 19.2803C11.329 19.1397 11.25 18.9489 11.25 18.75V18C10.8561 17.9989 10.4693 17.8945 10.1284 17.697C9.78755 17.4996 9.50446 17.2162 9.3075 16.875C9.24578 16.7901 9.20255 16.6932 9.18062 16.5906C9.15869 16.488 9.15854 16.3819 9.18017 16.2792C9.20181 16.1765 9.24476 16.0795 9.30624 15.9945C9.36772 15.9094 9.44637 15.8382 9.53709 15.7855C9.62781 15.7328 9.7286 15.6996 9.83292 15.6883C9.93725 15.6769 10.0428 15.6876 10.1427 15.7196C10.2427 15.7516 10.3348 15.8042 10.4131 15.874C10.4915 15.9439 10.5543 16.0294 10.5975 16.125C10.6636 16.2395 10.7587 16.3344 10.8733 16.4003C10.9879 16.4661 11.1178 16.5005 11.25 16.5H12.75C12.9489 16.5 13.1397 16.421 13.2803 16.2803C13.421 16.1397 13.5 15.9489 13.5 15.75C13.5 15.5511 13.421 15.3603 13.2803 15.2197C13.1397 15.079 12.9489 15 12.75 15H11.25C10.6533 15 10.081 14.7629 9.65901 14.341C9.23705 13.919 9 13.3467 9 12.75C9 12.1533 9.23705 11.581 9.65901 11.159C10.081 10.7371 10.6533 10.5 11.25 10.5V9.75C11.25 9.55109 11.329 9.36032 11.4697 9.21967C11.6103 9.07902 11.8011 9 12 9C12.1989 9 12.3897 9.07902 12.5303 9.21967C12.671 9.36032 12.75 9.55109 12.75 9.75V10.5C13.1439 10.5011 13.5307 10.6055 13.8716 10.803C14.2125 11.0004 14.4955 11.2838 14.6925 11.625C14.7542 11.7099 14.7974 11.8068 14.8194 11.9094C14.8413 12.012 14.8415 12.1181 14.8198 12.2208C14.7982 12.3235 14.7552 12.4205 14.6938 12.5055C14.6323 12.5906 14.5536 12.6618 14.4629 12.7145C14.3722 12.7672 14.2714 12.8004 14.1671 12.8117C14.0627 12.8231 13.9572 12.8124 13.8573 12.7804C13.7573 12.7484 13.6652 12.6958 13.5869 12.626C13.5085 12.5561 13.4457 12.4706 13.4025 12.375C13.3364 12.2605 13.2413 12.1656 13.1267 12.0997C13.0121 12.0339 12.8822 11.9995 12.75 12H11.25C11.0511 12 10.8603 12.079 10.7197 12.2197C10.579 12.3603 10.5 12.5511 10.5 12.75C10.5 12.9489 10.579 13.1397 10.7197 13.2803C10.8603 13.421 11.0511 13.5 11.25 13.5H12.75C13.3467 13.5 13.919 13.7371 14.341 14.159C14.7629 14.581 15 15.1533 15 15.75C15 16.3467 14.7629 16.919 14.341 17.341C13.919 17.7629 13.3467 18 12.75 18Z" fill="#00B14F"/>
</svg>
