<svg width="22" height="22" viewBox="0 0 22 22" fill="none" xmlns="http://www.w3.org/2000/svg">
<g clip-path="url(#clip0_265_3583)">
<path d="M20.7498 9.37294C20.4112 9.12328 19.9884 8.81144 19.9329 8.60483C19.8727 8.37814 20.0879 7.8817 20.262 7.48283C20.5604 6.79795 20.8684 6.08823 20.526 5.49804C20.1807 4.90023 19.4049 4.81221 18.656 4.72805C18.2284 4.68021 17.6966 4.62094 17.5378 4.46118C17.378 4.30143 17.3188 3.76962 17.2709 3.343C17.1868 2.59404 17.0997 1.81926 16.5009 1.47298C15.9806 1.17074 15.2096 1.43474 14.5161 1.73698C14.1335 1.90342 13.7337 2.06218 13.3932 2.06604C13.1866 2.01058 12.8757 1.58777 12.6251 1.24916C12.1947 0.663811 11.7059 0 11 0C10.295 0 9.8053 0.663811 9.37388 1.2492C9.12328 1.58875 8.81238 2.01156 8.51969 2.07564C8.26143 2.07564 7.86543 1.90346 7.48283 1.73703C6.78746 1.43478 6.01555 1.17365 5.49902 1.47303C4.89929 1.8193 4.81226 2.59409 4.72805 3.34398C4.68021 3.77155 4.62094 4.30242 4.46213 4.46217C4.30237 4.62094 3.77056 4.6812 3.34394 4.7281C2.59404 4.81226 1.81827 4.90027 1.47298 5.49808C1.1315 6.08827 1.43949 6.79705 1.73698 7.48288C1.91108 7.88175 2.12724 8.37913 2.06604 8.60582C2.01058 8.81243 1.58875 9.12427 1.24916 9.37392C0.663811 9.80436 0 10.2941 0 11C0 11.7059 0.663811 12.1956 1.25019 12.627C1.5888 12.8767 2.01156 13.1885 2.06707 13.3951C2.12733 13.6218 1.91212 14.1183 1.73801 14.5171C1.43958 15.202 1.13159 15.9117 1.47401 16.5019C1.8193 17.0997 2.59507 17.1877 3.34403 17.2719C3.77159 17.3197 4.3034 17.379 4.46222 17.5388C4.62197 17.6985 4.68124 18.2303 4.72908 18.657C4.81324 19.4059 4.90032 20.1807 5.49907 20.527C6.01653 20.8283 6.7875 20.5652 7.48288 20.263C7.86547 20.0965 8.2586 19.9272 8.60582 19.9339C8.81243 19.9894 9.12328 20.4122 9.37392 20.7508C9.8053 21.3362 10.2941 22 11 22C11.705 22 12.1947 21.3362 12.6261 20.7508C12.8767 20.4112 13.1876 19.9884 13.4803 19.9234C13.7386 19.9234 14.1346 20.0956 14.5172 20.262C15.2145 20.5643 15.9845 20.8264 16.501 20.527C17.1007 20.1807 17.1877 19.4059 17.2719 18.656C17.3198 18.2285 17.3791 17.6976 17.5379 17.5378C17.6976 17.3781 18.2294 17.3188 18.6561 17.271C19.406 17.1868 20.1817 17.0997 20.527 16.501C20.8685 15.9108 20.5605 15.202 20.263 14.5162C20.0889 14.1173 19.8737 13.6199 19.934 13.3942C19.9894 13.1876 20.4112 12.8757 20.7508 12.6261C21.3362 12.1956 22 11.7059 22 11C22 10.2941 21.3361 9.80436 20.7498 9.37294ZM8.60869 12.913C8.60869 13.1187 8.47669 13.3014 8.28156 13.3664C8.23183 13.3836 8.18112 13.3913 8.13041 13.3913C7.98312 13.3913 7.83965 13.3224 7.74782 13.2L5.73913 10.5217V12.913C5.73913 13.177 5.52485 13.3913 5.26085 13.3913C4.99685 13.3913 4.78258 13.177 4.78258 12.913V9.08697C4.78258 8.8813 4.91458 8.69863 5.10971 8.63357C5.30389 8.56757 5.52005 8.6355 5.64344 8.80001L7.65214 11.4783V9.08697C7.65214 8.82297 7.86641 8.60869 8.13041 8.60869C8.39441 8.60869 8.60869 8.82297 8.60869 9.08697V12.913ZM11.9565 10.5217C12.2205 10.5217 12.4348 10.736 12.4348 11C12.4348 11.264 12.2205 11.4783 11.9565 11.4783H10.5217V12.4348H11.9565C12.2205 12.4348 12.4348 12.649 12.4348 12.913C12.4348 13.177 12.2205 13.3913 11.9565 13.3913H10.0435C9.77947 13.3913 9.5652 13.177 9.5652 12.913V9.08697C9.5652 8.82297 9.77947 8.60869 10.0435 8.60869H11.9565C12.2205 8.60869 12.4348 8.82297 12.4348 9.08697C12.4348 9.35097 12.2205 9.56524 11.9565 9.56524H10.5217V10.5217H11.9565ZM18.1595 9.20269L17.203 13.0288C17.1514 13.2354 16.9697 13.3827 16.7573 13.3903C16.7506 13.3903 16.7439 13.3903 16.7382 13.3903C16.5325 13.3903 16.3498 13.2593 16.2838 13.0632L15.7826 11.5557L15.2804 13.0642C15.2135 13.265 15.048 13.3999 14.8079 13.3904C14.5955 13.3827 14.4138 13.2345 14.3622 13.0288L13.4057 9.20273C13.3425 8.9464 13.4975 8.68715 13.7538 8.62308C14.0054 8.55802 14.2694 8.71397 14.3335 8.97124L14.8911 11.2038L15.3282 9.89237C15.4593 9.50211 16.1059 9.50211 16.2359 9.89237L16.6731 11.2038L17.2307 8.97124C17.2938 8.71392 17.5521 8.55897 17.8103 8.62308C18.0687 8.68711 18.2237 8.9473 18.1595 9.20269Z" fill="#00B14F"/>
</g>
<defs>
<clipPath id="clip0_265_3583">
<rect width="22" height="22" fill="white"/>
</clipPath>
</defs>
</svg>
