<svg width="24" height="24" viewBox="0 0 24 24" fill="none" xmlns="http://www.w3.org/2000/svg">
<path d="M12.5961 11.6279C12.3287 11.2006 11.6689 11.2038 11.4041 11.6279L6.03176 20.2342C5.95896 20.3496 5.92465 20.4787 5.92465 20.6057C5.92465 20.9971 6.24115 21.3096 6.62777 21.3096C6.86121 21.3096 7.09057 21.1921 7.22379 20.9786H16.7764C16.9096 21.1921 17.1389 21.3096 17.3724 21.3096C17.7591 21.3096 18.0755 20.997 18.0755 20.6057C18.0755 20.4787 18.0412 20.3496 17.9684 20.2342L12.5961 11.6279ZM7.88018 6.10791C8.00791 6.10791 8.13701 6.07359 8.25373 6.0008C8.58195 5.79478 15.4182 5.79478 15.7464 6.0008C15.8631 6.07359 15.9922 6.10791 16.12 6.10791C16.3534 6.10791 16.5828 5.99119 16.716 5.77763C16.7128 5.78264 19.2026 1.75509 19.8605 0.703125H4.13965C4.99755 2.07478 4.79346 1.79536 5.50666 2.93564C6.28962 4.18744 7.28421 5.77763 7.28421 5.77763C7.41738 5.99119 7.64674 6.10791 7.88018 6.10791Z" fill="#B3E8CA"/>
<path d="M20.4375 22.5938H19.4204L17.9697 20.2356C16.6802 18.1606 14.4486 16.9219 12 16.9219C9.55144 16.9219 7.31981 18.1606 6.03169 20.2329L4.57959 22.5938H3.5625C3.17386 22.5938 2.85938 22.9082 2.85938 23.2969C2.85938 23.6855 3.17386 24 3.5625 24H20.4375C20.8261 24 21.1406 23.6855 21.1406 23.2969C21.1406 22.9082 20.8261 22.5938 20.4375 22.5938ZM3.5625 1.40625H20.4375C20.8242 1.40625 21.1406 1.08984 21.1406 0.703125C21.1406 0.316406 20.8242 0 20.4375 0H3.5625C3.17578 0 2.85938 0.316406 2.85938 0.703125C2.85938 1.08984 3.17578 1.40625 3.5625 1.40625ZM15.8177 4.76962C14.9526 5.18161 13.5889 5.67188 12 5.67188C10.4111 5.67188 9.04744 5.18161 8.18227 4.76962C7.90486 4.63641 7.56291 4.70231 7.35553 4.9365C7.1468 5.16994 7.11797 5.51259 7.28414 5.77763L11.404 12.3728C11.5317 12.5782 11.7569 12.7031 12 12.7031C12.2431 12.7031 12.4683 12.5782 12.596 12.3728L16.7159 5.77763C16.8821 5.51259 16.8533 5.16994 16.6445 4.9365C16.4357 4.70231 16.0951 4.63641 15.8177 4.76962Z" fill="#00B14F"/>
</svg>
