<svg width="24" height="24" viewBox="0 0 24 24" fill="none" xmlns="http://www.w3.org/2000/svg">
<g clip-path="url(#clip0_265_3597)">
<path d="M3.50363 15.3795C3.36777 15.6505 3.42069 15.9781 3.63474 16.1923L3.80667 16.3643C4.30344 15.7756 4.88242 15.1367 5.58462 14.4347C5.63425 14.3851 5.68533 14.3611 5.73514 14.3153L4.629 13.209C3.98593 14.3721 3.61093 15.1667 3.50363 15.3795Z" fill="#00B14F"/>
<path d="M9.56195 18.4103C8.85809 19.1141 8.22089 19.6942 7.6355 20.1913L7.86841 20.4243C8.08447 20.6403 8.41516 20.6923 8.68707 20.5524C9.05127 20.3647 9.62402 20.0952 10.8398 19.4181L9.68152 18.2598C9.63574 18.3098 9.61175 18.3607 9.56195 18.4103Z" fill="#00B14F"/>
<path d="M9.18714 14.8091C8.67903 14.301 7.25007 14.7566 6.57881 15.4276C4.33321 17.6732 3.31899 19.2654 2.8636 20.2054C2.73305 20.4748 2.78743 20.7972 2.9991 21.0089C3.21114 21.2211 3.53413 21.2749 3.80366 21.1444C4.72267 20.6982 6.29536 19.6887 8.5677 17.4165C9.3058 16.6781 9.66999 15.2921 9.18769 14.8097L9.18714 14.8091Z" fill="#00B14F"/>
<path d="M2.19466 9.36183L0.205956 11.3505C-0.0188971 11.5754 -0.0650396 11.9235 0.094262 12.1992C0.249718 12.4713 0.57528 12.6099 0.885094 12.527C1.95992 12.2388 2.90566 12.117 3.5425 12.2803C4.44851 10.6696 5.42208 9.18678 6.45314 7.83986C5.85677 7.45753 3.88601 7.67049 2.19466 9.36183Z" fill="#00B14F"/>
<path d="M11.9013 23.9249C12.1722 24.0619 12.5001 24.009 12.7145 23.7944L14.7034 21.8057C16.2431 20.2656 16.5141 18.2785 16.1648 17.6484C14.6626 18.7806 13.1408 19.7366 11.721 20.5369C11.8189 21.0901 11.7538 21.6268 11.5221 23.1941C11.4769 23.4976 11.6336 23.7911 11.9013 23.9249Z" fill="#00B14F"/>
<path d="M13.9595 7.05243C13.1372 7.87494 13.1372 9.21289 13.9595 10.0354C14.782 10.8579 16.1202 10.8579 16.9427 10.0354C17.7652 9.21289 17.7652 7.87494 16.9427 7.05243C16.1202 6.22992 14.782 6.22992 13.9595 7.05243Z" fill="#7FD9A6"/>
<path d="M23.9585 0.685852C23.9332 0.338135 23.6564 0.0632936 23.3098 0.0372926C21.5829 -0.0927121 19.8628 0.11969 18.1768 0.635315C18.3036 1.79364 18.9028 3.04718 19.9256 4.07C20.9607 5.10492 22.2483 5.70385 23.4273 5.81591C23.8814 4.22455 24.0967 2.5202 23.9585 0.685852Z" fill="#7FD9A6"/>
<path d="M18.9314 5.06469C17.7613 3.89465 17.0469 2.49133 16.8176 1.125C12.5954 2.85663 8.55353 6.63812 5.35962 11.9504L6.94641 13.5372C8.03058 13.097 9.34674 12.9807 10.1815 13.8153C11.0174 14.6514 10.8989 15.967 10.4589 17.0497L12.0979 18.6886C16.1852 16.2253 20.9437 12.3444 22.9672 7.18103C21.5676 6.96954 20.1205 6.25378 18.9314 5.06469ZM17.9368 11.0308C16.5662 12.4014 14.3358 12.4014 12.9651 11.0308C11.5944 9.66009 11.5944 7.4295 12.9651 6.05896C14.3358 4.68841 16.5662 4.68841 17.9368 6.05896C19.3075 7.42968 19.3075 9.66009 17.9368 11.0308Z" fill="#00B14F"/>
</g>
<defs>
<clipPath id="clip0_265_3597">
<rect width="24" height="24" fill="white"/>
</clipPath>
</defs>
</svg>
